<?xml version="1.0" encoding="utf-8"?>
<!-- Generator: Adobe Illustrator 19.0.0, SVG Export Plug-In . SVG Version: 6.00 Build 0)  -->
<svg version="1.1" id="Layer_1" xmlns="http://www.w3.org/2000/svg" xmlns:xlink="http://www.w3.org/1999/xlink" x="0px" y="0px"
	 viewBox="0 0 476 477" style="enable-background:new 0 0 476 477;" xml:space="preserve">
<style type="text/css">
	.st0{fill:#3FA9F5;}
</style>
<text id="XMLID_1_" transform="matrix(1 0 0 1 -525.1245 971.0034)"><tspan x="0" y="0" style="font-family:'Rockwell-Condensed'; font-size:386px;">TW Pr</tspan><tspan x="803.9" y="0" style="font-family:'Rockwell-Condensed'; font-size:236px;">    </tspan><tspan x="1118.2" y="0" style="font-family:'Rockwell-Condensed'; font-size:386px;">tection</tspan></text>
<g id="XMLID_8_">
	<g id="XMLID_9_">
		<path id="XMLID_10_" d="M391,831.5c0-3.2,0.3-6.3,0.9-9.3c-10.7-9-22.5-14.8-31.1-18.3c-2.1,7-3.2,14.4-3.2,22.1
			c0,2.1,0.3,4.1,0.5,6.2c-0.2,2.1-0.5,4.1-0.5,6.2c0,7.7,1.1,15.1,3.2,22.1c8.7-3.4,20.6-9.3,31.4-18.5
			C391.5,838.7,391,835.2,391,831.5z M404.7,864.7c-8.8,3-20.4,8.2-30.3,17.2c11.7,14.9,28.7,25.4,48.1,28.8
			c1.7-9.5,2.4-22.4-1-35.1C415.1,873.1,409.4,869.4,404.7,864.7z M437,684c-81.7,0-148,66.3-148,148s66.3,148,148,148
			s148-66.3,148-148S518.7,684,437,684z M437,928.2c-53.1,0-96.2-43.1-96.2-96.2s43.1-96.2,96.2-96.2s96.2,43.1,96.2,96.2
			S490.1,928.2,437,928.2z M471.7,798.6c8.1-3.1,17.8-7.9,26.2-15.4c-11.4-14.7-27.8-25.3-46.8-29c-1.5,12.7-0.5,24.3,0.8,32.3
			C459.5,788.9,466.3,793.1,471.7,798.6z M421.9,787.4c2.9-12.2,2.3-24.3,0.7-33.5c-19.5,3.4-36.4,13.9-48.1,28.8
			c9.5,8.6,20.6,13.8,29.3,16.8C408.6,794.2,414.9,790,421.9,787.4z M460.3,830.7c0-13-10.5-23.6-23.6-23.6
			c-13,0-23.6,10.5-23.6,23.6s10.5,23.6,23.6,23.6C449.7,854.3,460.3,843.7,460.3,830.7z M485.1,831.5c0,4.4-0.7,8.6-1.8,12.7
			c9.7,7.6,19.9,12.9,27.8,16.1c2-6.9,3.1-14.3,3.1-21.8c0-2.1-0.2-4.1-0.5-6.2c0.2-2.1,0.5-4.1,0.5-6.2c0-7.6-1.1-14.9-3.1-21.8
			c-7.8,3.1-17.9,8.3-27.5,15.8C484.6,823.8,485.1,827.6,485.1,831.5z M452.2,876.4c-1.4,8.1-2.7,20.4-1.1,33.9
			c19-3.7,35.4-14.3,46.8-29c-8.9-7.9-19.1-12.8-27.4-15.8C465.4,870.4,459.2,874.3,452.2,876.4z"/>
	</g>
</g>
<g id="XMLID_27_">
	<g id="XMLID_28_">
		<path id="XMLID_29_" class="st0" d="M164.1,238.3c0-5.1,0.5-10.2,1.5-15c-17.2-14.5-36.1-23.8-50-29.4
			c-3.4,11.3-5.2,23.2-5.2,35.6c0,3.4,0.4,6.7,0.8,10c-0.4,3.3-0.8,6.6-0.8,10c0,12.4,1.8,24.3,5.2,35.6c14-5.5,33.1-15,50.5-29.7
			C164.8,249.8,164.1,244.1,164.1,238.3z M186,291.5c-14.1,4.8-32.9,13.2-48.7,27.6c18.8,24,46.1,40.9,77.4,46.3
			c2.7-15.3,3.8-35.9-1.7-56.4C202.8,305.1,193.6,299.1,186,291.5z M238,1C106.6,1,0,107.6,0,239s106.6,238,238,238
			s238-106.6,238-238S369.4,1,238,1z M238,393.7c-85.4,0-154.7-69.3-154.7-154.7S152.6,84.3,238,84.3S392.7,153.6,392.7,239
			S323.4,393.7,238,393.7z M293.8,185.3c13-4.9,28.6-12.6,42.2-24.8c-18.3-23.7-44.7-40.7-75.2-46.7c-2.4,20.4-0.8,39.1,1.3,52
			C274.2,169.7,285.1,176.4,293.8,185.3z M213.7,167.3c4.7-19.6,3.6-39.1,1.1-53.8c-31.3,5.4-58.6,22.3-77.4,46.3
			c15.2,13.9,33.2,22.1,47.1,27C192.4,178.2,202.4,171.4,213.7,167.3z M275.4,236.9c0-20.9-17-37.9-37.9-37.9s-37.9,17-37.9,37.9
			c0,20.9,17,37.9,37.9,37.9S275.4,257.8,275.4,236.9z M315.4,238.3c0,7.1-1.1,13.9-2.9,20.4c15.6,12.2,32.1,20.7,44.7,25.8
			c3.3-11.2,5.1-22.9,5.1-35.1c0-3.4-0.4-6.7-0.7-10c0.3-3.3,0.7-6.6,0.7-10c0-12.2-1.8-23.9-5.1-35.1
			c-12.5,5.1-28.8,13.4-44.2,25.5C314.5,225.7,315.4,231.9,315.4,238.3z M262.4,310.4c-2.2,13-4.3,32.8-1.7,54.5
			c30.5-6,56.9-23,75.2-46.7c-14.3-12.7-30.6-20.6-44-25.4C283.7,300.8,273.7,307,262.4,310.4z"/>
	</g>
</g>
</svg>
